<svg xmlns="http://www.w3.org/2000/svg" aria-label="QuickComment logo dark" viewBox="0 0 256 256"><defs><linearGradient id="a" x1="42" x2="214" y1="34" y2="210" gradientUnits="userSpaceOnUse"><stop offset="0" stop-color="#FFE680"/><stop offset=".52" stop-color="#FFB72E"/><stop offset="1" stop-color="#FF7A1A"/></linearGradient><linearGradient id="b" x1="120" x2="210" y1="96" y2="180" gradientUnits="userSpaceOnUse"><stop offset="0" stop-color="#FDBA74" stop-opacity="0"/><stop offset="1" stop-color="#EA580C" stop-opacity=".34"/></linearGradient></defs><path fill="url(#a)" d="M62 38h132c14 0 24 10 24 24v78l-37 37h-37l-27 33c-6 7-17 3-17-6v-27H62c-14 0-24-10-24-24V62c0-14 10-24 24-24Z"/><path fill="url(#b)" d="M218 140v1l-36 36h-38l-27 33c-6 7-17 3-17-6v-27h39c32 0 61-14 79-37Z"/><path fill="#fffaf0" fill-opacity=".96" d="M75 84c0-7 5-12 12-12h82c7 0 12 5 12 12s-5 12-12 12H87c-7 0-12-5-12-12Zm0 43c0-7 5-12 12-12h58c7 0 12 5 12 12s-5 12-12 12H87c-7 0-12-5-12-12Z"/><path fill="#fffaf0" fill-opacity=".68" d="M218 140v1l-36 36h-1v-24c0-7 5-13 12-13h25Z"/></svg>
