<svg xmlns="http://www.w3.org/2000/svg" aria-label="QuickComment logo" viewBox="0 0 256 256"><defs><linearGradient id="a" x1="42" x2="214" y1="34" y2="210" gradientUnits="userSpaceOnUse"><stop offset="0" stop-color="#FFD45A"/><stop offset=".52" stop-color="#FF9F1C"/><stop offset="1" stop-color="#F97316"/></linearGradient><linearGradient id="b" x1="120" x2="210" y1="96" y2="180" gradientUnits="userSpaceOnUse"><stop offset="0" stop-color="#FB923C" stop-opacity="0"/><stop offset="1" stop-color="#C2410C" stop-opacity=".42"/></linearGradient></defs><path fill="url(#a)" d="M62 38h132c14 0 24 10 24 24v78l-37 37h-37l-27 33c-6 7-17 3-17-6v-27H62c-14 0-24-10-24-24V62c0-14 10-24 24-24Z"/><path fill="url(#b)" d="M218 140v1l-36 36h-38l-27 33c-6 7-17 3-17-6v-27h39c32 0 61-14 79-37Z"/><path fill="#fff7ed" fill-opacity=".94" d="M75 84c0-7 5-12 12-12h82c7 0 12 5 12 12s-5 12-12 12H87c-7 0-12-5-12-12Zm0 43c0-7 5-12 12-12h58c7 0 12 5 12 12s-5 12-12 12H87c-7 0-12-5-12-12Z"/><path fill="#fff7ed" fill-opacity=".64" d="M218 140v1l-36 36h-1v-24c0-7 5-13 12-13h25Z"/></svg>
